<?xml version="1.0" encoding="UTF-8" standalone="no"?>
<svg
   xmlns:dc="http://purl.org/dc/elements/1.1/"
   xmlns:cc="http://creativecommons.org/ns#"
   xmlns:rdf="http://www.w3.org/1999/02/22-rdf-syntax-ns#"
   xmlns:svg="http://www.w3.org/2000/svg"
   xmlns="http://www.w3.org/2000/svg"
   viewBox="0 0 300.5625 76.900002"
   height="76.900002"
   width="300.5625"
   xml:space="preserve"
   version="1.1"
   id="svg2"><metadata
     id="metadata8"><rdf:RDF><cc:Work
         rdf:about=""><dc:format>image/svg+xml</dc:format><dc:type
           rdf:resource="http://purl.org/dc/dcmitype/StillImage" /></cc:Work></rdf:RDF></metadata><defs
     id="defs6"><clipPath
       id="clipPath18"
       clipPathUnits="userSpaceOnUse"><path
         id="path20"
         d="m 0,0 2404.52,0 0,615 L 0,615 0,0 Z" /></clipPath></defs><g
     transform="matrix(1.25,0,0,-1.25,0,76.9)"
     id="g10"><g
       transform="scale(0.1,0.1)"
       id="g12"><g
         id="g14"><g
           clip-path="url(#clipPath18)"
           id="g16"><path
             id="path22"
             style="fill:#fabc26;fill-opacity:1;fill-rule:nonzero;stroke:none"
             d="m 404.246,262.023 c -0.019,0.004 -203.683,46.094 -203.683,46.094 -60.715,13.738 -98.79,74.09 -85.055,134.801 13.734,60.711 74.086,98.789 134.801,85.051 60.707,-13.735 98.789,-74.086 85.046,-134.797 -6.875,-30.395 -25.449,-55.094 -49.886,-70.481 0,0 -0.063,-0.046 -0.09,-0.062 -0.715,-0.516 -1.184,-1.356 -1.184,-2.301 0,-1.324 0.918,-2.437 2.149,-2.734 0,0 90.609,-20.492 90.625,-20.492 2.152,-0.489 4.386,0.343 5.715,2.093 0.011,0.016 0,0.004 0,0.004 24.968,33.028 39.957,74.239 39.957,118.817 0,104.972 -82.016,190.754 -185.457,196.855 -0.918,0.043 -6.532,0.262 -8.426,0.293 C 182.965,615.879 136.527,602.746 96.1367,574.465 -5.83594,503.059 -30.6211,362.508 40.7852,260.531 L 221.992,1.73828 C 222.758,0.683594 224.004,0 225.41,0 c 1.41,0 2.66,0.695313 3.426,1.75391 0,0 177.941,253.76609 177.961,253.78909 0.453,0.676 0.719,1.488 0.719,2.363 0,2.008 -1.399,3.688 -3.27,4.117" /><path
             id="path24"
             style="fill:#617171;fill-opacity:1;fill-rule:nonzero;stroke:none"
             d="m 571.07,212.23 0,-53.335 c 0,-16.278 6.535,-23.766 22.805,-23.766 17.109,0 22.813,8.203 22.813,23.766 l 0,53.335 11.289,0 0,-50.371 c 0,-23.757 -8.434,-35.996 -34.102,-35.996 -24.465,0 -34.09,11.403 -34.09,34.813 l 0,51.554 11.285,0" /><path
             id="path26"
             style="fill:#617171;fill-opacity:1;fill-rule:nonzero;stroke:none"
             d="m 691.781,178.254 37.063,-50.606 -14.254,0 -30.649,43 -14.019,-13.296 0,-29.704 -11.168,0 0,84.582 11.168,0 0,-41.937 42.887,41.937 14.609,0 -35.637,-33.976" /><path
             id="path28"
             style="fill:#617171;fill-opacity:1;fill-rule:nonzero;stroke:none"
             d="m 762.43,173.145 21.035,0 c 10.93,0 22.215,1.07 22.215,14.972 0,12.586 -9.27,14.606 -19.246,14.606 l -24.004,0 0,-29.578 z m 26.023,39.085 c 15.918,0 28.391,-5.234 28.391,-23.406 0,-9.863 -5.824,-18.051 -14.492,-20.547 11.882,-2.496 12.355,-10.57 12.828,-20.793 0.363,-6.769 0.363,-15.324 4.875,-19.836 l -12.832,0 c -2.731,4.278 -2.618,13.778 -2.852,18.653 -0.715,14.254 -4.402,17.933 -19.719,17.933 l -22.222,0 0,-36.586 -11.157,0 0,84.582 37.18,0" /><path
             id="path30"
             style="fill:#617171;fill-opacity:1;fill-rule:nonzero;stroke:none"
             d="m 878.242,201.535 -14.609,-39.078 28.984,0 -14.375,39.078 z m 39.555,-73.887 -12.469,0 -9.39,25.899 -35.52,0 -9.617,-25.899 -11.879,0 33.254,84.582 12.597,0 33.024,-84.582" /><path
             id="path32"
             style="fill:#617171;fill-opacity:1;fill-rule:nonzero;stroke:none"
             d="m 940.113,127.648 11.1602,0 0,84.582 -11.1602,0 0,-84.582 z" /><path
             id="path34"
             style="fill:#617171;fill-opacity:1;fill-rule:nonzero;stroke:none"
             d="m 994.566,212.23 44.664,-68.664 0,68.664 10.81,0 0,-84.582 -12.59,0 -44.427,67.829 0,-67.829 -10.695,0 0,84.582 12.238,0" /><path
             id="path36"
             style="fill:#617171;fill-opacity:1;fill-rule:nonzero;stroke:none"
             d="m 1139.77,202.492 -47.4,0 0,-26.488 44.31,0 0,-9.391 -44.31,0 0,-29.222 48,0 0,-9.743 -59.16,0 0,84.582 58.56,0 0,-9.738" /><path
             id="path38"
             style="fill:#617171;fill-opacity:1;fill-rule:nonzero;stroke:none"
             d="m 1167.62,177.301 -1.19,33.027 7.72,0 -1.07,-33.027 -5.46,0" /><path
             id="path40"
             style="fill:#617171;fill-opacity:1;fill-rule:nonzero;stroke:none"
             d="m 1255.84,187.402 c -1.3,12.239 -8.55,17.223 -21.03,17.223 -12.11,0 -19.11,-5.105 -19.11,-14.02 0,-9.5 9.85,-11.523 22.92,-14.25 13.79,-2.859 31.35,-7.125 31.35,-24.949 0,-18.769 -16.74,-25.664 -32.9,-25.664 -20.19,0 -35.04,9.387 -35.04,29.821 l 10.8,0 c 0.48,-15.325 11.65,-20.668 25.2,-20.668 9.86,0 21.03,3.445 21.03,15.445 0,10.926 -10.7,13.062 -24.6,16.273 -13.66,3.086 -29.46,5.348 -29.46,23.164 0,17.344 15.45,24.118 30.65,24.118 17.94,0 30.29,-8.317 31,-26.493 l -10.81,0" /><path
             id="path42"
             style="fill:#617171;fill-opacity:1;fill-rule:nonzero;stroke:none"
             d="m 1352.31,212.23 44.66,-68.664 0,68.664 10.82,0 0,-84.582 -12.6,0 -44.43,67.829 0,-67.829 -10.69,0 0,84.582 12.24,0" /><path
             id="path44"
             style="fill:#617171;fill-opacity:1;fill-rule:nonzero;stroke:none"
             d="m 1469.08,201.535 -14.61,-39.078 28.99,0 -14.38,39.078 z m 39.56,-73.887 -12.47,0 -9.38,25.899 -35.53,0 -9.62,-25.899 -11.88,0 33.27,84.582 12.58,0 33.03,-84.582" /><path
             id="path46"
             style="fill:#617171;fill-opacity:1;fill-rule:nonzero;stroke:none"
             d="m 1580.21,202.492 -28.39,0 0,-74.844 -11.17,0 0,74.844 -28.39,0 0,9.738 67.95,0 0,-9.738" /><path
             id="path48"
             style="fill:#617171;fill-opacity:1;fill-rule:nonzero;stroke:none"
             d="m 1603.09,127.648 11.1719,0 0,84.582 -11.1719,0 0,-84.582 z" /><path
             id="path50"
             style="fill:#617171;fill-opacity:1;fill-rule:nonzero;stroke:none"
             d="m 1652.53,170.059 c 0,-21.149 11.53,-34.809 29.47,-34.809 17.69,0 29.22,13.777 29.22,34.809 0,20.906 -11.53,34.449 -29.47,34.449 -19.95,0 -29.22,-16.391 -29.22,-34.449 z m 69.85,0.589 c 0,-24.828 -13.65,-45.015 -40.5,-45.015 -27.09,0 -40.51,20.668 -40.51,45.258 0,26.367 15.8,43.359 40.38,43.359 26.27,0 40.63,-18.414 40.63,-43.602" /><path
             id="path52"
             style="fill:#617171;fill-opacity:1;fill-rule:nonzero;stroke:none"
             d="m 1761.41,212.23 44.66,-68.664 0,68.664 10.82,0 0,-84.582 -12.59,0 -44.44,67.829 0,-67.829 -10.69,0 0,84.582 12.24,0" /><path
             id="path54"
             style="fill:#617171;fill-opacity:1;fill-rule:nonzero;stroke:none"
             d="m 1878.18,201.535 -14.61,-39.078 28.99,0 -14.38,39.078 z m 39.56,-73.887 -12.47,0 -9.38,25.899 -35.53,0 -9.62,-25.899 -11.88,0 33.27,84.582 12.59,0 33.02,-84.582" /><path
             id="path56"
             style="fill:#617171;fill-opacity:1;fill-rule:nonzero;stroke:none"
             d="m 1995.93,127.648 -56.06,0 0,84.582 11.16,0 0,-74.839 44.9,0 0,-9.743" /><path
             id="path58"
             style="fill:#617171;fill-opacity:1;fill-rule:nonzero;stroke:none"
             d="m 2074.23,171.727 21.5,0 c 10.8,0 19.13,2.964 19.13,15.437 0,13.539 -9.64,15.445 -20.68,15.445 l -19.95,0 0,-30.882 z m 23.63,40.503 c 16.16,0 28.16,-6.769 28.16,-24.359 0,-19.121 -12.35,-25.535 -28.87,-25.535 l -22.92,0 0,-34.688 -11.17,0 0,84.582 34.8,0" /><path
             id="path60"
             style="fill:#617171;fill-opacity:1;fill-rule:nonzero;stroke:none"
             d="m 2158.91,170.059 c 0,-21.149 11.53,-34.809 29.46,-34.809 17.69,0 29.22,13.777 29.22,34.809 0,20.906 -11.53,34.449 -29.46,34.449 -19.95,0 -29.22,-16.391 -29.22,-34.449 z m 69.85,0.589 c 0,-24.828 -13.66,-45.015 -40.5,-45.015 -27.09,0 -40.52,20.668 -40.52,45.258 0,26.367 15.8,43.359 40.39,43.359 26.26,0 40.63,-18.414 40.63,-43.602" /><path
             id="path62"
             style="fill:#617171;fill-opacity:1;fill-rule:nonzero;stroke:none"
             d="m 2304.38,187.402 c -1.3,12.239 -8.56,17.223 -21.03,17.223 -12.11,0 -19.13,-5.105 -19.13,-14.02 0,-9.5 9.87,-11.523 22.94,-14.25 13.77,-2.859 31.36,-7.125 31.36,-24.949 0,-18.769 -16.75,-25.664 -32.91,-25.664 -20.2,0 -35.04,9.387 -35.04,29.821 l 10.81,0 c 0.47,-15.325 11.64,-20.668 25.18,-20.668 9.86,0 21.03,3.445 21.03,15.445 0,10.926 -10.7,13.062 -24.6,16.273 -13.65,3.086 -29.46,5.348 -29.46,23.164 0,17.344 15.45,24.118 30.66,24.118 17.93,0 30.28,-8.317 31,-26.493 l -10.81,0" /><path
             id="path64"
             style="fill:#617171;fill-opacity:1;fill-rule:nonzero;stroke:none"
             d="m 2403.26,202.492 -28.4,0 0,-74.844 -11.17,0 0,74.844 -28.39,0 0,9.738 67.96,0 0,-9.738" /><path
             id="path66"
             style="fill:#2c2e2c;fill-opacity:1;fill-rule:nonzero;stroke:none"
             d="m 537.281,488.957 c 0,3.258 1.805,5.066 5.067,5.066 l 31.832,0 c 3.258,0 5.062,-1.808 5.062,-5.066 l 0,-104.918 c 0,-29.309 16.285,-50.293 46.309,-50.293 29.312,0 46.672,19.902 46.672,50.293 l 0,104.918 c 0,3.258 1.804,5.066 5.066,5.066 l 31.84,0 c 3.258,0 5.066,-1.808 5.066,-5.066 l 0,-105.285 c 0,-51.012 -34.011,-89.723 -88.644,-89.723 -54.266,0 -88.27,38.711 -88.27,89.723 l 0,105.285" /><path
             id="path68"
             style="fill:#2c2e2c;fill-opacity:1;fill-rule:nonzero;stroke:none"
             d="m 795.902,494.023 c 3.258,0 5.063,-1.808 5.063,-5.066 l 0,-78.148 81.414,80.32 c 2.168,1.809 5.418,2.894 9.402,2.894 l 44.137,0 c 3.262,0 4.34,-2.894 1.805,-5.429 l -86.457,-81.039 91.886,-105.282 c 2.536,-2.531 1.09,-5.425 -2.168,-5.425 l -43.41,0 c -3.984,0 -6.883,1.082 -9.054,3.617 l -66.207,82.484 -21.348,-16.64 0,-64.399 c 0,-3.254 -1.805,-5.062 -5.063,-5.062 l -31.832,0 c -3.254,0 -5.062,1.808 -5.062,5.062 l 0,187.047 c 0,3.258 1.808,5.066 5.062,5.066 l 31.832,0" /><path
             id="path70"
             style="fill:#2c2e2c;fill-opacity:1;fill-rule:nonzero;stroke:none"
             d="m 1064.69,389.102 c 22.79,0 35.46,14.472 35.46,32.925 0,18.45 -12.67,32.2 -35.46,32.2 l -52.1,0 0,-65.125 52.1,0 z m 0,104.921 c 43.78,0 77.42,-31.117 77.42,-71.996 0,-26.05 -14.11,-48.48 -34.73,-60.422 l 31.11,-59.695 c 1.46,-2.527 -0.36,-5.062 -3.25,-5.062 l -35.46,0 c -2.9,0 -5.06,1.082 -6.5,3.617 l -24.25,49.203 c -2.53,-0.363 -4.34,-0.363 -5.78,-0.363 l -50.66,0 0,-47.395 c 0,-3.254 -1.8,-5.062 -5.06,-5.062 l -31.839,0 c -3.253,0 -5.062,1.808 -5.062,5.062 l 0,187.047 c 0,3.258 1.809,5.066 5.062,5.066 l 88.999,0" /><path
             id="path72"
             style="fill:#2c2e2c;fill-opacity:1;fill-rule:nonzero;stroke:none"
             d="m 1275.71,389.102 c 22.07,0 34.73,13.75 34.73,32.925 0,18.809 -12.66,32.2 -34.73,32.2 l -52.46,0 0,-65.125 52.46,0 z m 0,104.921 c 43.78,0 76.7,-31.476 76.7,-71.996 0,-41.968 -32.92,-72.722 -76.7,-72.722 l -52.46,0 0,-47.395 c 0,-3.254 -1.81,-5.062 -5.07,-5.062 l -31.83,0 c -3.25,0 -5.06,1.808 -5.06,5.062 l 0,187.047 c 0,3.258 1.81,5.066 5.06,5.066 l 89.36,0" /><path
             id="path74"
             style="fill:#2c2e2c;fill-opacity:1;fill-rule:nonzero;stroke:none"
             d="m 1420.2,395.254 c 0,-35.82 25.32,-61.863 61.5,-61.863 35.82,0 61.14,26.043 61.14,61.863 0,36.539 -25.32,62.226 -61.14,62.226 -36.18,0 -61.5,-25.687 -61.5,-62.226 z m 61.5,101.66 c 56.81,0 103.48,-43.777 103.48,-101.66 0,-58.246 -46.67,-101.305 -103.48,-101.305 -57.16,0 -103.83,43.059 -103.83,101.305 0,57.883 46.67,101.66 103.83,101.66" /><path
             id="path76"
             style="fill:#2c2e2c;fill-opacity:1;fill-rule:nonzero;stroke:none"
             d="m 1779.48,466.887 c 2.53,-1.809 2.89,-3.981 1.08,-6.508 l -18.09,-22.434 c -2.17,-2.535 -4.7,-2.894 -7.6,-0.359 -16.27,13.019 -37.26,20.258 -62.23,20.258 -24.59,0 -37.98,-6.875 -37.98,-18.09 0,-11.578 10.85,-17.371 43.78,-20.621 50.65,-4.703 87.18,-21.711 87.18,-62.949 0,-39.434 -36.89,-62.235 -86.46,-62.235 -36.18,0 -64.4,8.688 -90.45,30.395 -2.53,1.804 -2.53,4.34 -0.36,7.234 l 17.01,22.793 c 2.17,2.895 4.7,3.258 7.23,1.082 19.9,-15.551 38.71,-22.426 67.3,-22.426 30.38,0 44.13,9.043 44.13,22.426 0,14.11 -13.75,20.266 -50.29,23.52 -48.48,3.976 -80.68,18.449 -80.68,59.336 0,35.812 34.38,58.605 81.77,58.605 31.83,0 61.5,-10.851 84.66,-30.027" /><path
             id="path78"
             style="fill:#2c2e2c;fill-opacity:1;fill-rule:nonzero;stroke:none"
             d="m 1859.3,494.023 c 3.26,0 5.06,-1.808 5.06,-5.066 l 0,-69.824 89.73,0 0,69.824 c 0,3.258 1.81,5.066 5.06,5.066 l 31.85,0 c 3.25,0 5.06,-1.808 5.06,-5.066 l 0,-187.047 c 0,-3.254 -1.81,-5.062 -5.06,-5.062 l -31.85,0 c -3.25,0 -5.06,1.808 -5.06,5.062 l 0,77.426 -89.73,0 0,-77.426 c 0,-3.254 -1.8,-5.062 -5.06,-5.062 l -31.83,0 c -3.26,0 -5.06,1.808 -5.06,5.062 l 0,187.047 c 0,3.258 1.8,5.066 5.06,5.066 l 31.83,0" /><path
             id="path80"
             style="fill:#2c2e2c;fill-opacity:1;fill-rule:nonzero;stroke:none"
             d="m 2195.03,494.023 c 3.26,0 5.07,-1.808 5.07,-5.066 l 0,-29.664 c 0,-3.262 -1.81,-5.066 -5.07,-5.066 l -62.96,0 0,-152.317 c 0,-3.254 -1.8,-5.062 -5.06,-5.062 l -31.83,0 c -3.26,0 -5.07,1.808 -5.07,5.062 l 0,152.317 -62.95,0 c -3.26,0 -5.07,1.804 -5.07,5.066 l 0,29.664 c 0,3.258 1.81,5.066 5.07,5.066 l 167.87,0" /><path
             id="path82"
             style="fill:#2c2e2c;fill-opacity:1;fill-rule:nonzero;stroke:none"
             d="m 2261.3,373.906 68.73,0 -31.84,81.039 -3.97,0 -32.92,-81.039 z m 83.2,-37.98 -98.4,0 -13.75,-34.738 c -1.08,-2.895 -3.26,-4.34 -6.15,-4.34 l -35.82,0 c -3.61,0 -4.7,1.808 -3.61,5.062 l 85.38,189.219 c 0.72,1.809 2.17,2.894 4.71,2.894 l 41.24,0 c 2.53,0 3.97,-1.085 4.7,-2.894 l 81.4,-188.492 c 1.09,-2.895 -0.72,-5.789 -3.98,-5.789 l -34.37,0 c -3.61,0 -6.14,1.808 -7.6,5.062 l -13.75,34.016" /></g></g></g></g></svg>